<svg width="28" height="28" viewBox="0 0 28 28" fill="none" xmlns="http://www.w3.org/2000/svg">
<path d="M10.5 25.6667H17.5C23.3333 25.6667 25.6667 23.3333 25.6667 17.5V10.5C25.6667 4.66668 23.3333 2.33334 17.5 2.33334H10.5C4.66668 2.33334 2.33334 4.66668 2.33334 10.5V17.5C2.33334 23.3333 4.66668 25.6667 10.5 25.6667Z" stroke="white" stroke-width="1.5" stroke-linecap="round" stroke-linejoin="round"/>
<path d="M18.0833 21.5833C19.3667 21.5833 20.4167 20.5333 20.4167 19.25V8.74999C20.4167 7.46666 19.3667 6.41666 18.0833 6.41666C16.8 6.41666 15.75 7.46666 15.75 8.74999V19.25C15.75 20.5333 16.7883 21.5833 18.0833 21.5833Z" stroke="white" stroke-width="1.5" stroke-linecap="round" stroke-linejoin="round"/>
<path d="M9.91668 21.5833C11.2 21.5833 12.25 20.5333 12.25 19.25V15.1667C12.25 13.8833 11.2 12.8333 9.91668 12.8333C8.63334 12.8333 7.58334 13.8833 7.58334 15.1667V19.25C7.58334 20.5333 8.62168 21.5833 9.91668 21.5833Z" stroke="white" stroke-width="1.5" stroke-linecap="round" stroke-linejoin="round"/>
</svg>
