<svg width="28" height="28" viewBox="0 0 28 28" fill="none" xmlns="http://www.w3.org/2000/svg">
<path d="M18.8884 2.33334H9.11171C4.86504 2.33334 2.33337 4.86501 2.33337 9.11168V18.8767C2.33337 23.135 4.86504 25.6667 9.11171 25.6667H18.8767C23.1234 25.6667 25.655 23.135 25.655 18.8883V9.11168C25.6667 4.86501 23.135 2.33334 18.8884 2.33334ZM11.5617 18.8883C11.5617 19.635 10.955 20.2417 10.1967 20.2417C9.45004 20.2417 8.84337 19.635 8.84337 18.8883V15.085C8.84337 14.3383 9.45004 13.7317 10.1967 13.7317C10.955 13.7317 11.5617 14.3383 11.5617 15.085V18.8883ZM19.1567 18.8883C19.1567 19.635 18.55 20.2417 17.8034 20.2417C17.045 20.2417 16.4384 19.635 16.4384 18.8883V9.11168C16.4384 8.36501 17.045 7.75834 17.8034 7.75834C18.55 7.75834 19.1567 8.36501 19.1567 9.11168V18.8883Z" fill="white"/>
</svg>
