<svg width="335" height="232" viewBox="0 0 335 232" fill="none" xmlns="http://www.w3.org/2000/svg">
<path d="M11.5154 222.768C11.5154 223.519 11.3935 224.216 11.1498 224.859C10.906 225.493 10.5648 226.049 10.126 226.527C9.68725 227.004 9.16563 227.375 8.56113 227.638C7.95663 227.901 7.2985 228.033 6.58675 228.033C5.86525 228.033 5.20225 227.901 4.59775 227.638C4.003 227.375 3.48625 227.004 3.0475 226.527C2.60875 226.049 2.2675 225.493 2.02375 224.859C1.78 224.216 1.65813 223.519 1.65813 222.768C1.65813 222.008 1.78 221.31 2.02375 220.677C2.2675 220.033 2.60875 219.477 3.0475 219.009C3.48625 218.532 4.003 218.161 4.59775 217.898C5.20225 217.635 5.86525 217.503 6.58675 217.503C7.2985 217.503 7.95663 217.635 8.56113 217.898C9.16563 218.161 9.68725 218.532 10.126 219.009C10.5648 219.477 10.906 220.033 11.1498 220.677C11.3935 221.31 11.5154 222.008 11.5154 222.768ZM10.2576 222.768C10.2576 221.969 10.0968 221.262 9.775 220.647C9.463 220.033 9.034 219.551 8.488 219.2C7.942 218.849 7.30825 218.673 6.58675 218.673C5.86525 218.673 5.22663 218.849 4.67088 219.2C4.12488 219.551 3.69588 220.033 3.38388 220.647C3.07188 221.262 2.91588 221.969 2.91588 222.768C2.91588 223.558 3.07188 224.265 3.38388 224.889C3.69588 225.503 4.12488 225.986 4.67088 226.337C5.22663 226.688 5.86525 226.863 6.58675 226.863C7.30825 226.863 7.942 226.688 8.488 226.337C9.034 225.986 9.463 225.503 9.775 224.889C10.0968 224.265 10.2576 223.558 10.2576 222.768ZM16.8021 220.136C17.2993 220.136 17.7478 220.189 18.1476 220.296C18.5473 220.404 18.8642 220.55 19.0982 220.735C19.3322 220.92 19.4492 221.13 19.4492 221.364C19.4492 221.491 19.4053 221.613 19.3176 221.73C19.2298 221.847 19.1128 221.905 18.9666 221.905C18.8301 221.905 18.718 221.881 18.6302 221.832C18.5522 221.783 18.4742 221.72 18.3962 221.642C18.328 221.564 18.2305 221.496 18.1037 221.437C17.9867 221.369 17.8161 221.315 17.5918 221.276C17.3676 221.237 17.1433 221.218 16.9191 221.218C16.3828 221.218 15.91 221.345 15.5005 221.598C15.1007 221.852 14.7838 222.193 14.5498 222.622C14.3158 223.051 14.1988 223.538 14.1988 224.084C14.1988 224.63 14.311 225.118 14.5352 225.547C14.7595 225.976 15.0715 226.317 15.4712 226.571C15.871 226.824 16.3341 226.951 16.8606 226.951C17.2018 226.951 17.4748 226.922 17.6796 226.863C17.8843 226.805 18.055 226.736 18.1915 226.658C18.367 226.561 18.4986 226.463 18.5863 226.366C18.6838 226.268 18.8106 226.22 18.9666 226.22C19.1323 226.22 19.2591 226.273 19.3468 226.38C19.4443 226.488 19.4931 226.619 19.4931 226.775C19.4931 226.951 19.3712 227.136 19.1275 227.331C18.8837 227.526 18.5522 227.692 18.133 227.828C17.7235 227.965 17.2555 228.033 16.729 228.033C15.988 228.033 15.3396 227.862 14.7838 227.521C14.2281 227.17 13.7942 226.697 13.4822 226.103C13.18 225.498 13.0288 224.825 13.0288 224.084C13.0288 223.343 13.1848 222.675 13.4968 222.081C13.8186 221.486 14.2622 221.013 14.8277 220.662C15.3932 220.311 16.0513 220.136 16.8021 220.136ZM20.8028 220.37H24.2397C24.3957 220.37 24.5224 220.423 24.6199 220.53C24.7272 220.638 24.7808 220.764 24.7808 220.911C24.7808 221.067 24.7272 221.198 24.6199 221.306C24.5224 221.403 24.3957 221.452 24.2397 221.452H20.8028C20.6566 221.452 20.5298 221.398 20.4226 221.291C20.3153 221.184 20.2617 221.052 20.2617 220.896C20.2617 220.75 20.3153 220.628 20.4226 220.53C20.5298 220.423 20.6566 220.37 20.8028 220.37ZM22.3384 218.381C22.5042 218.381 22.6407 218.439 22.7479 218.556C22.8552 218.663 22.9088 218.8 22.9088 218.966V226.029C22.9088 226.263 22.9429 226.439 23.0112 226.556C23.0794 226.673 23.1672 226.756 23.2744 226.805C23.3914 226.844 23.5036 226.863 23.6108 226.863C23.7083 226.863 23.7912 226.848 23.8594 226.819C23.9374 226.78 24.0252 226.761 24.1227 226.761C24.2202 226.761 24.3079 226.809 24.3859 226.907C24.4737 226.995 24.5176 227.112 24.5176 227.258C24.5176 227.433 24.4152 227.585 24.2104 227.711C24.0057 227.828 23.7766 227.887 23.5231 227.887C23.3866 227.887 23.2159 227.877 23.0112 227.858C22.8162 227.838 22.6212 227.775 22.4262 227.667C22.2312 227.56 22.0654 227.385 21.9289 227.141C21.8022 226.887 21.7388 226.536 21.7388 226.088V218.966C21.7388 218.8 21.7973 218.663 21.9143 218.556C22.0313 218.439 22.1727 218.381 22.3384 218.381Z" fill="#8B98B1"/>
<path d="M79.4101 217.649C79.5758 217.649 79.7074 217.703 79.8049 217.81C79.9024 217.908 79.9512 218.034 79.9512 218.19V227.273C79.9512 227.458 79.8927 227.609 79.7757 227.726C79.6587 227.833 79.5173 227.887 79.3516 227.887C79.2638 227.887 79.1761 227.872 79.0883 227.843C79.0006 227.804 78.9323 227.755 78.8836 227.697L72.6241 219.419L72.9166 219.243V227.346C72.9166 227.502 72.8629 227.633 72.7557 227.741C72.6582 227.838 72.5266 227.887 72.3608 227.887C72.2048 227.887 72.0781 227.838 71.9806 227.741C71.8831 227.633 71.8343 227.502 71.8343 227.346V218.234C71.8343 218.059 71.8879 217.917 71.9952 217.81C72.1122 217.703 72.2487 217.649 72.4047 217.649C72.4924 217.649 72.5802 217.669 72.6679 217.708C72.7654 217.737 72.8386 217.786 72.8873 217.854L79.0591 226.015L78.8689 226.249V218.19C78.8689 218.034 78.9177 217.908 79.0152 217.81C79.1224 217.703 79.2541 217.649 79.4101 217.649ZM89.5667 224.084C89.5667 224.845 89.396 225.522 89.0548 226.117C88.7233 226.712 88.2699 227.18 87.6947 227.521C87.1292 227.862 86.4905 228.033 85.7788 228.033C85.067 228.033 84.4235 227.862 83.8483 227.521C83.273 227.18 82.8148 226.712 82.4735 226.117C82.142 225.522 81.9763 224.845 81.9763 224.084C81.9763 223.324 82.142 222.646 82.4735 222.051C82.8148 221.457 83.273 220.989 83.8483 220.647C84.4235 220.306 85.067 220.136 85.7788 220.136C86.4905 220.136 87.1292 220.306 87.6947 220.647C88.2699 220.989 88.7233 221.457 89.0548 222.051C89.396 222.646 89.5667 223.324 89.5667 224.084ZM88.3967 224.084C88.3967 223.519 88.2797 223.022 88.0457 222.593C87.8214 222.164 87.5094 221.827 87.1097 221.583C86.7197 221.34 86.276 221.218 85.7788 221.218C85.2815 221.218 84.833 221.34 84.4333 221.583C84.0433 221.827 83.7313 222.164 83.4973 222.593C83.2633 223.022 83.1463 223.519 83.1463 224.084C83.1463 224.64 83.2633 225.132 83.4973 225.561C83.7313 225.99 84.0433 226.332 84.4333 226.585C84.833 226.829 85.2815 226.951 85.7788 226.951C86.276 226.951 86.7197 226.829 87.1097 226.585C87.5094 226.332 87.8214 225.99 88.0457 225.561C88.2797 225.132 88.3967 224.64 88.3967 224.084ZM91.3282 220.194C91.4452 220.194 91.5573 220.228 91.6645 220.296C91.7718 220.355 91.8498 220.443 91.8985 220.56L94.3263 226.263L94.0923 226.38L96.5639 220.574C96.6712 220.311 96.8515 220.184 97.105 220.194C97.2513 220.194 97.378 220.243 97.4853 220.34C97.5925 220.438 97.6462 220.56 97.6462 220.706C97.6462 220.764 97.6364 220.823 97.6169 220.881C97.6072 220.93 97.5925 220.974 97.573 221.013L94.7504 227.507C94.6432 227.75 94.4725 227.877 94.2385 227.887C94.1118 227.897 93.9899 227.872 93.8729 227.814C93.7657 227.745 93.6877 227.643 93.6389 227.507L90.8163 221.028C90.7968 220.989 90.7773 220.945 90.7578 220.896C90.748 220.847 90.7432 220.789 90.7432 220.721C90.7432 220.594 90.7919 220.477 90.8894 220.37C90.9967 220.253 91.1429 220.194 91.3282 220.194Z" fill="#8B98B1"/>
<path d="M155.384 217.649C156.096 217.649 156.72 217.786 157.256 218.059C157.802 218.322 158.255 218.693 158.616 219.17C158.977 219.648 159.245 220.199 159.42 220.823C159.606 221.437 159.698 222.086 159.698 222.768C159.698 223.704 159.537 224.562 159.216 225.342C158.894 226.112 158.416 226.731 157.782 227.199C157.149 227.658 156.349 227.887 155.384 227.887H151.728C151.562 227.887 151.421 227.828 151.304 227.711C151.196 227.594 151.143 227.453 151.143 227.287V218.234C151.143 218.069 151.196 217.932 151.304 217.825C151.421 217.708 151.562 217.649 151.728 217.649H155.384ZM155.238 226.746C155.988 226.746 156.598 226.566 157.066 226.205C157.544 225.844 157.89 225.362 158.104 224.757C158.328 224.153 158.441 223.49 158.441 222.768C158.441 222.242 158.377 221.739 158.25 221.262C158.133 220.774 157.943 220.345 157.68 219.975C157.427 219.604 157.095 219.312 156.686 219.097C156.286 218.883 155.803 218.775 155.238 218.775H152.24L152.357 218.658V226.892L152.269 226.746H155.238ZM165.118 228.033C164.338 228.033 163.656 227.867 163.071 227.536C162.486 227.204 162.027 226.751 161.696 226.176C161.374 225.591 161.213 224.918 161.213 224.157C161.213 223.309 161.379 222.588 161.711 221.993C162.052 221.388 162.491 220.93 163.027 220.618C163.573 220.296 164.148 220.136 164.753 220.136C165.201 220.136 165.635 220.218 166.054 220.384C166.473 220.55 166.844 220.794 167.166 221.115C167.487 221.427 167.746 221.808 167.941 222.256C168.136 222.695 168.238 223.187 168.248 223.733C168.248 223.889 168.189 224.021 168.072 224.128C167.955 224.235 167.819 224.289 167.663 224.289H161.886L161.623 223.28H167.253L167.019 223.485V223.163C166.98 222.763 166.844 222.422 166.61 222.139C166.386 221.847 166.108 221.622 165.776 221.466C165.455 221.31 165.113 221.232 164.753 221.232C164.46 221.232 164.168 221.286 163.875 221.393C163.592 221.491 163.334 221.657 163.1 221.891C162.876 222.115 162.69 222.407 162.544 222.768C162.408 223.129 162.339 223.563 162.339 224.07C162.339 224.635 162.452 225.132 162.676 225.561C162.91 225.99 163.232 226.332 163.641 226.585C164.051 226.829 164.528 226.951 165.074 226.951C165.416 226.951 165.713 226.907 165.966 226.819C166.22 226.731 166.439 226.624 166.625 226.497C166.81 226.361 166.966 226.224 167.093 226.088C167.219 226 167.341 225.956 167.458 225.956C167.604 225.956 167.721 226.005 167.809 226.103C167.907 226.2 167.955 226.317 167.955 226.454C167.955 226.619 167.877 226.766 167.721 226.892C167.448 227.195 167.078 227.463 166.61 227.697C166.142 227.921 165.645 228.033 165.118 228.033ZM173.443 220.136C173.941 220.136 174.389 220.189 174.789 220.296C175.189 220.404 175.505 220.55 175.739 220.735C175.973 220.92 176.09 221.13 176.09 221.364C176.09 221.491 176.047 221.613 175.959 221.73C175.871 221.847 175.754 221.905 175.608 221.905C175.471 221.905 175.359 221.881 175.271 221.832C175.193 221.783 175.115 221.72 175.037 221.642C174.969 221.564 174.872 221.496 174.745 221.437C174.628 221.369 174.457 221.315 174.233 221.276C174.009 221.237 173.785 221.218 173.56 221.218C173.024 221.218 172.551 221.345 172.142 221.598C171.742 221.852 171.425 222.193 171.191 222.622C170.957 223.051 170.84 223.538 170.84 224.084C170.84 224.63 170.952 225.118 171.176 225.547C171.401 225.976 171.713 226.317 172.112 226.571C172.512 226.824 172.975 226.951 173.502 226.951C173.843 226.951 174.116 226.922 174.321 226.863C174.526 226.805 174.696 226.736 174.833 226.658C175.008 226.561 175.14 226.463 175.228 226.366C175.325 226.268 175.452 226.22 175.608 226.22C175.774 226.22 175.9 226.273 175.988 226.38C176.086 226.488 176.134 226.619 176.134 226.775C176.134 226.951 176.012 227.136 175.769 227.331C175.525 227.526 175.193 227.692 174.774 227.828C174.365 227.965 173.897 228.033 173.37 228.033C172.629 228.033 171.981 227.862 171.425 227.521C170.869 227.17 170.435 226.697 170.123 226.103C169.821 225.498 169.67 224.825 169.67 224.084C169.67 223.343 169.826 222.675 170.138 222.081C170.46 221.486 170.903 221.013 171.469 220.662C172.034 220.311 172.693 220.136 173.443 220.136Z" fill="#60708F"/>
<path d="M230.424 228.033C229.829 228.033 229.288 227.882 228.801 227.58C228.323 227.277 227.947 226.873 227.674 226.366C227.606 226.249 227.572 226.137 227.572 226.029C227.572 225.864 227.635 225.732 227.762 225.635C227.889 225.527 228.016 225.474 228.142 225.474C228.25 225.474 228.347 225.503 228.435 225.561C228.532 225.62 228.615 225.693 228.684 225.781C228.879 226.112 229.122 226.376 229.415 226.571C229.707 226.766 230.044 226.863 230.424 226.863C230.824 226.863 231.175 226.775 231.477 226.6C231.789 226.424 232.033 226.185 232.208 225.883C232.393 225.571 232.486 225.22 232.486 224.83V218.234C232.486 218.069 232.545 217.932 232.662 217.825C232.788 217.708 232.939 217.649 233.115 217.649C233.29 217.649 233.432 217.708 233.539 217.825C233.656 217.932 233.715 218.069 233.715 218.234V224.83C233.715 225.425 233.568 225.966 233.276 226.454C232.993 226.941 232.603 227.326 232.106 227.609C231.618 227.892 231.058 228.033 230.424 228.033ZM242.379 220.253C242.545 220.253 242.681 220.311 242.788 220.428C242.905 220.535 242.964 220.672 242.964 220.838V227.287C242.964 227.453 242.905 227.594 242.788 227.711C242.681 227.828 242.545 227.887 242.379 227.887C242.203 227.887 242.062 227.828 241.955 227.711C241.847 227.594 241.794 227.453 241.794 227.287V225.898L242.072 225.869C242.072 226.083 241.999 226.317 241.852 226.571C241.706 226.824 241.506 227.063 241.253 227.287C240.999 227.502 240.697 227.682 240.346 227.828C240.005 227.965 239.634 228.033 239.234 228.033C238.571 228.033 237.977 227.862 237.45 227.521C236.924 227.17 236.504 226.697 236.192 226.103C235.89 225.508 235.739 224.83 235.739 224.07C235.739 223.299 235.89 222.622 236.192 222.037C236.504 221.442 236.924 220.979 237.45 220.647C237.977 220.306 238.562 220.136 239.205 220.136C239.624 220.136 240.014 220.204 240.375 220.34C240.736 220.477 241.048 220.662 241.311 220.896C241.584 221.13 241.794 221.388 241.94 221.671C242.096 221.954 242.174 222.237 242.174 222.519L241.794 222.432V220.838C241.794 220.672 241.847 220.535 241.955 220.428C242.062 220.311 242.203 220.253 242.379 220.253ZM239.366 226.951C239.854 226.951 240.283 226.824 240.653 226.571C241.033 226.317 241.326 225.976 241.531 225.547C241.745 225.108 241.852 224.616 241.852 224.07C241.852 223.533 241.745 223.051 241.531 222.622C241.326 222.183 241.033 221.842 240.653 221.598C240.283 221.345 239.854 221.218 239.366 221.218C238.888 221.218 238.459 221.34 238.079 221.583C237.709 221.827 237.416 222.164 237.202 222.593C236.987 223.022 236.88 223.514 236.88 224.07C236.88 224.616 236.982 225.108 237.187 225.547C237.401 225.976 237.694 226.317 238.064 226.571C238.445 226.824 238.879 226.951 239.366 226.951ZM248.964 220.136C249.627 220.136 250.148 220.272 250.529 220.545C250.909 220.818 251.177 221.184 251.333 221.642C251.499 222.1 251.582 222.612 251.582 223.178V227.287C251.582 227.453 251.523 227.594 251.406 227.711C251.299 227.828 251.162 227.887 250.997 227.887C250.831 227.887 250.69 227.828 250.573 227.711C250.465 227.594 250.412 227.453 250.412 227.287V223.207C250.412 222.836 250.353 222.505 250.236 222.212C250.129 221.91 249.944 221.671 249.68 221.496C249.427 221.31 249.076 221.218 248.627 221.218C248.218 221.218 247.843 221.31 247.501 221.496C247.16 221.671 246.887 221.91 246.682 222.212C246.478 222.505 246.375 222.836 246.375 223.207V227.287C246.375 227.453 246.317 227.594 246.2 227.711C246.092 227.828 245.956 227.887 245.79 227.887C245.624 227.887 245.483 227.828 245.366 227.711C245.259 227.594 245.205 227.453 245.205 227.287V220.911C245.205 220.745 245.259 220.608 245.366 220.501C245.483 220.384 245.624 220.326 245.79 220.326C245.966 220.326 246.107 220.384 246.214 220.501C246.322 220.608 246.375 220.745 246.375 220.911V221.949L246.083 222.271C246.131 222.017 246.244 221.764 246.419 221.51C246.595 221.247 246.814 221.013 247.077 220.808C247.34 220.604 247.633 220.443 247.955 220.326C248.276 220.199 248.613 220.136 248.964 220.136Z" fill="#8B98B1"/>
<path d="M304.258 227.887C304.083 227.887 303.937 227.828 303.82 227.711C303.712 227.594 303.659 227.453 303.659 227.287V218.234C303.659 218.069 303.712 217.932 303.82 217.825C303.937 217.708 304.078 217.649 304.244 217.649H309.377C309.543 217.649 309.684 217.703 309.801 217.81C309.918 217.917 309.977 218.054 309.977 218.22C309.977 218.376 309.918 218.507 309.801 218.615C309.684 218.722 309.543 218.775 309.377 218.775H304.77L304.858 218.658V222.242L304.785 222.081H308.719C308.885 222.081 309.026 222.139 309.143 222.256C309.26 222.363 309.319 222.5 309.319 222.666C309.319 222.812 309.26 222.944 309.143 223.061C309.026 223.168 308.885 223.221 308.719 223.221H304.756L304.858 223.09V227.287C304.858 227.453 304.799 227.594 304.682 227.711C304.565 227.828 304.424 227.887 304.258 227.887ZM315.078 228.033C314.298 228.033 313.615 227.867 313.03 227.536C312.445 227.204 311.987 226.751 311.655 226.176C311.334 225.591 311.173 224.918 311.173 224.157C311.173 223.309 311.339 222.588 311.67 221.993C312.011 221.388 312.45 220.93 312.986 220.618C313.532 220.296 314.108 220.136 314.712 220.136C315.161 220.136 315.594 220.218 316.014 220.384C316.433 220.55 316.803 220.794 317.125 221.115C317.447 221.427 317.705 221.808 317.9 222.256C318.095 222.695 318.198 223.187 318.207 223.733C318.207 223.889 318.149 224.021 318.032 224.128C317.915 224.235 317.778 224.289 317.622 224.289H311.846L311.582 223.28H317.213L316.979 223.485V223.163C316.94 222.763 316.803 222.422 316.569 222.139C316.345 221.847 316.067 221.622 315.736 221.466C315.414 221.31 315.073 221.232 314.712 221.232C314.42 221.232 314.127 221.286 313.835 221.393C313.552 221.491 313.293 221.657 313.059 221.891C312.835 222.115 312.65 222.407 312.504 222.768C312.367 223.129 312.299 223.563 312.299 224.07C312.299 224.635 312.411 225.132 312.635 225.561C312.869 225.99 313.191 226.332 313.601 226.585C314.01 226.829 314.488 226.951 315.034 226.951C315.375 226.951 315.672 226.907 315.926 226.819C316.179 226.731 316.399 226.624 316.584 226.497C316.769 226.361 316.925 226.224 317.052 226.088C317.179 226 317.301 225.956 317.418 225.956C317.564 225.956 317.681 226.005 317.769 226.103C317.866 226.2 317.915 226.317 317.915 226.454C317.915 226.619 317.837 226.766 317.681 226.892C317.408 227.195 317.037 227.463 316.569 227.697C316.101 227.921 315.604 228.033 315.078 228.033ZM323.768 220.136C324.431 220.136 325.026 220.306 325.553 220.647C326.079 220.979 326.494 221.437 326.796 222.022C327.108 222.607 327.264 223.285 327.264 224.055C327.264 224.825 327.108 225.508 326.796 226.103C326.494 226.697 326.079 227.17 325.553 227.521C325.036 227.862 324.451 228.033 323.798 228.033C323.437 228.033 323.096 227.979 322.774 227.872C322.462 227.755 322.174 227.604 321.911 227.419C321.658 227.224 321.443 227.014 321.268 226.79C321.092 226.556 320.965 226.327 320.887 226.103L321.209 225.898V227.36C321.209 227.526 321.155 227.667 321.048 227.784C320.941 227.901 320.8 227.96 320.624 227.96C320.458 227.96 320.317 227.906 320.2 227.799C320.093 227.682 320.039 227.536 320.039 227.36V217.664C320.039 217.498 320.093 217.357 320.2 217.24C320.317 217.123 320.458 217.064 320.624 217.064C320.8 217.064 320.941 217.123 321.048 217.24C321.155 217.357 321.209 217.498 321.209 217.664V222.168L320.99 222.051C321.058 221.808 321.175 221.574 321.341 221.349C321.516 221.115 321.726 220.911 321.97 220.735C322.223 220.55 322.501 220.404 322.803 220.296C323.115 220.189 323.437 220.136 323.768 220.136ZM323.637 221.218C323.149 221.218 322.715 221.34 322.335 221.583C321.965 221.827 321.672 222.164 321.458 222.593C321.253 223.022 321.151 223.509 321.151 224.055C321.151 224.601 321.253 225.093 321.458 225.532C321.672 225.971 321.965 226.317 322.335 226.571C322.715 226.824 323.149 226.951 323.637 226.951C324.124 226.951 324.553 226.824 324.924 226.571C325.294 226.317 325.587 225.971 325.801 225.532C326.016 225.093 326.123 224.601 326.123 224.055C326.123 223.509 326.016 223.022 325.801 222.593C325.587 222.164 325.294 221.827 324.924 221.583C324.553 221.34 324.124 221.218 323.637 221.218Z" fill="#8B98B1"/>
<path d="M4.375 149.925C7.75 151.057 15.9469 151.895 24.3734 142.917C34.9065 131.694 62.7883 92.415 93.1485 114.86C105.54 125.032 129.911 122.758 141.477 114.86C148.495 110.068 161.924 102.587 172.457 108.002C196.579 120.404 218.926 81.1923 233.797 64.3584C250.697 45.2266 293.898 44.6031 332.312 89.2975" stroke="#8438FF" stroke-width="2.25" stroke-linecap="round"/>
<path d="M24.3734 142.917C15.9469 151.895 7.75 151.057 4.375 149.925V177.66H332.312V89.2975C293.898 44.6031 250.697 45.2266 233.797 64.3584C218.926 81.1923 196.579 120.404 172.457 108.002C161.924 102.586 148.495 110.068 141.477 114.86C129.911 122.758 105.54 125.032 93.1485 114.86C62.7883 92.415 34.9065 131.694 24.3734 142.917Z" fill="url(#paint0_linear_411_220)" fill-opacity="0.5"/>
<path d="M167.5 106.34C167.5 109.158 165.23 111.438 162.438 111.438C159.645 111.438 157.375 109.158 157.375 106.34C157.375 103.521 159.645 101.242 162.438 101.242C165.23 101.242 167.5 103.521 167.5 106.34Z" fill="#8438FF" stroke="white" stroke-width="1.125"/>
<rect x="128.688" y="52" width="67.8333" height="32.5786" rx="7.875" fill="#8438FF"/>
<path d="M164.956 88.4443C163.569 90.8613 162.876 92.0698 161.833 92.0698C160.791 92.0698 160.097 90.8613 158.711 88.4443L157.584 86.4796C156.208 84.0824 155.52 82.8838 156.04 81.9859C156.561 81.088 157.942 81.088 160.706 81.088L162.961 81.088C165.724 81.088 167.106 81.088 167.626 81.9859C168.146 82.8838 167.459 84.0824 166.083 86.4796L164.956 88.4443Z" fill="#8438FF"/>
<path d="M149.546 72.368C149.546 73.0587 149.299 73.6513 148.804 74.146C148.309 74.6313 147.675 74.9393 146.9 75.07V76.232C146.9 76.4187 146.835 76.5773 146.704 76.708C146.573 76.8387 146.41 76.904 146.214 76.904C146.027 76.904 145.873 76.8387 145.752 76.708C145.631 76.5773 145.57 76.4187 145.57 76.232V75.112C145.029 75.0653 144.534 74.9487 144.086 74.762C143.647 74.5753 143.227 74.2953 142.826 73.922C142.63 73.754 142.532 73.5627 142.532 73.348C142.532 73.18 142.597 73.0307 142.728 72.9C142.859 72.76 143.013 72.69 143.19 72.69C143.349 72.69 143.484 72.7413 143.596 72.844C143.913 73.124 144.226 73.348 144.534 73.516C144.851 73.6747 145.197 73.7773 145.57 73.824V70.59C144.674 70.3847 143.983 70.0627 143.498 69.624C143.022 69.176 142.784 68.5693 142.784 67.804C142.784 67.0667 143.041 66.4553 143.554 65.97C144.067 65.4847 144.739 65.1907 145.57 65.088V64.374C145.57 64.1873 145.631 64.0287 145.752 63.898C145.883 63.7673 146.046 63.702 146.242 63.702C146.429 63.702 146.583 63.7673 146.704 63.898C146.835 64.0287 146.9 64.1873 146.9 64.374V65.116C147.339 65.1813 147.745 65.298 148.118 65.466C148.491 65.634 148.799 65.8393 149.042 66.082C149.257 66.2687 149.364 66.4693 149.364 66.684C149.364 66.852 149.299 67.0013 149.168 67.132C149.047 67.2627 148.897 67.328 148.72 67.328C148.589 67.328 148.482 67.2907 148.398 67.216C148.23 67.0573 148.011 66.908 147.74 66.768C147.479 66.628 147.199 66.5207 146.9 66.446V69.554C147.796 69.7873 148.459 70.114 148.888 70.534C149.327 70.9447 149.546 71.556 149.546 72.368ZM144.114 67.748C144.114 68.1213 144.235 68.4247 144.478 68.658C144.73 68.882 145.094 69.0687 145.57 69.218V66.39C145.113 66.4647 144.753 66.6233 144.492 66.866C144.24 67.1087 144.114 67.4027 144.114 67.748ZM146.9 73.754C147.292 73.642 147.605 73.4693 147.838 73.236C148.081 73.0027 148.202 72.732 148.202 72.424C148.193 72.0693 148.081 71.7753 147.866 71.542C147.651 71.2993 147.329 71.0987 146.9 70.94V73.754ZM160.583 73.768C160.761 73.768 160.91 73.8287 161.031 73.95C161.153 74.0713 161.213 74.2207 161.213 74.398C161.213 74.5753 161.153 74.72 161.031 74.832C160.91 74.944 160.761 75 160.583 75H155.613C155.427 75 155.273 74.944 155.151 74.832C155.03 74.7107 154.969 74.552 154.969 74.356C154.969 74.188 155.035 74.0293 155.165 73.88L158.287 70.492C159.155 69.568 159.589 68.7513 159.589 68.042C159.589 67.538 159.421 67.1227 159.085 66.796C158.759 66.46 158.339 66.292 157.825 66.292C157.48 66.292 157.149 66.39 156.831 66.586C156.514 66.782 156.257 67.062 156.061 67.426C155.912 67.622 155.735 67.72 155.529 67.72C155.371 67.72 155.221 67.6593 155.081 67.538C154.941 67.4167 154.871 67.2767 154.871 67.118C154.871 67.0153 154.904 66.908 154.969 66.796C155.044 66.684 155.147 66.5533 155.277 66.404C155.585 65.9933 155.977 65.6667 156.453 65.424C156.929 65.1813 157.41 65.06 157.895 65.06C158.521 65.06 159.062 65.186 159.519 65.438C159.977 65.69 160.327 66.0353 160.569 66.474C160.821 66.9127 160.947 67.4167 160.947 67.986C160.947 69.0593 160.369 70.2167 159.211 71.458L157.097 73.768H160.583ZM164.837 65.2C165.024 65.2093 165.173 65.2793 165.285 65.41C165.406 65.5313 165.467 65.6853 165.467 65.872V74.328C165.467 74.5147 165.397 74.6733 165.257 74.804C165.117 74.9347 164.944 75 164.739 75C164.534 75 164.366 74.9347 164.235 74.804C164.104 74.6733 164.039 74.5147 164.039 74.328V67.048L162.807 67.79C162.704 67.8553 162.588 67.888 162.457 67.888C162.27 67.888 162.112 67.818 161.981 67.678C161.85 67.5287 161.785 67.37 161.785 67.202C161.785 67.09 161.818 66.9827 161.883 66.88C161.948 66.7773 162.032 66.6933 162.135 66.628L164.347 65.298C164.478 65.2327 164.641 65.2 164.837 65.2ZM170.865 75.14C170.1 75.14 169.446 74.9253 168.905 74.496C168.364 74.0667 167.953 73.474 167.673 72.718C167.402 71.962 167.267 71.0893 167.267 70.1C167.267 69.1107 167.402 68.238 167.673 67.482C167.953 66.726 168.364 66.1333 168.905 65.704C169.446 65.2747 170.1 65.06 170.865 65.06C171.63 65.06 172.284 65.2747 172.825 65.704C173.366 66.1333 173.772 66.726 174.043 67.482C174.323 68.238 174.463 69.1107 174.463 70.1C174.463 71.0893 174.323 71.962 174.043 72.718C173.772 73.474 173.366 74.0667 172.825 74.496C172.284 74.9253 171.63 75.14 170.865 75.14ZM170.865 73.796C171.546 73.796 172.074 73.474 172.447 72.83C172.83 72.186 173.021 71.276 173.021 70.1C173.021 68.924 172.83 68.014 172.447 67.37C172.074 66.726 171.546 66.404 170.865 66.404C170.184 66.404 169.652 66.726 169.269 67.37C168.896 68.014 168.709 68.924 168.709 70.1C168.709 71.276 168.896 72.186 169.269 72.83C169.652 73.474 170.184 73.796 170.865 73.796ZM179.355 75.14C178.59 75.14 177.937 74.9253 177.395 74.496C176.854 74.0667 176.443 73.474 176.163 72.718C175.893 71.962 175.757 71.0893 175.757 70.1C175.757 69.1107 175.893 68.238 176.163 67.482C176.443 66.726 176.854 66.1333 177.395 65.704C177.937 65.2747 178.59 65.06 179.355 65.06C180.121 65.06 180.774 65.2747 181.315 65.704C181.857 66.1333 182.263 66.726 182.533 67.482C182.813 68.238 182.953 69.1107 182.953 70.1C182.953 71.0893 182.813 71.962 182.533 72.718C182.263 73.474 181.857 74.0667 181.315 74.496C180.774 74.9253 180.121 75.14 179.355 75.14ZM179.355 73.796C180.037 73.796 180.564 73.474 180.937 72.83C181.32 72.186 181.511 71.276 181.511 70.1C181.511 68.924 181.32 68.014 180.937 67.37C180.564 66.726 180.037 66.404 179.355 66.404C178.674 66.404 178.142 66.726 177.759 67.37C177.386 68.014 177.199 68.924 177.199 70.1C177.199 71.276 177.386 72.186 177.759 72.83C178.142 73.474 178.674 73.796 179.355 73.796Z" fill="white"/>
<path d="M3.402 9.49V22H1.35V9.49H3.402ZM11.2801 11.92C12.0601 11.92 12.7561 12.082 13.3681 12.406C13.9921 12.73 14.4781 13.21 14.8261 13.846C15.1741 14.482 15.3481 15.25 15.3481 16.15V22H13.3141V16.456C13.3141 15.568 13.0921 14.89 12.6481 14.422C12.2041 13.942 11.5981 13.702 10.8301 13.702C10.0621 13.702 9.45009 13.942 8.99409 14.422C8.55009 14.89 8.32809 15.568 8.32809 16.456V22H6.27609V12.082H8.32809V13.216C8.66409 12.808 9.09009 12.49 9.60609 12.262C10.1341 12.034 10.6921 11.92 11.2801 11.92ZM17.4615 17.032C17.4615 16.012 17.6655 15.118 18.0735 14.35C18.4935 13.57 19.0695 12.97 19.8015 12.55C20.5335 12.13 21.3735 11.92 22.3215 11.92C23.5215 11.92 24.5115 12.208 25.2915 12.784C26.0835 13.348 26.6175 14.158 26.8935 15.214H24.6795C24.4995 14.722 24.2115 14.338 23.8155 14.062C23.4195 13.786 22.9215 13.648 22.3215 13.648C21.4815 13.648 20.8095 13.948 20.3055 14.548C19.8135 15.136 19.5675 15.964 19.5675 17.032C19.5675 18.1 19.8135 18.934 20.3055 19.534C20.8095 20.134 21.4815 20.434 22.3215 20.434C23.5095 20.434 24.2955 19.912 24.6795 18.868H26.8935C26.6055 19.876 26.0655 20.68 25.2735 21.28C24.4815 21.868 23.4975 22.162 22.3215 22.162C21.3735 22.162 20.5335 21.952 19.8015 21.532C19.0695 21.1 18.4935 20.5 18.0735 19.732C17.6655 18.952 17.4615 18.052 17.4615 17.032ZM33.4205 22.162C32.4845 22.162 31.6385 21.952 30.8825 21.532C30.1265 21.1 29.5325 20.5 29.1005 19.732C28.6685 18.952 28.4525 18.052 28.4525 17.032C28.4525 16.024 28.6745 15.13 29.1185 14.35C29.5625 13.57 30.1685 12.97 30.9365 12.55C31.7045 12.13 32.5625 11.92 33.5105 11.92C34.4585 11.92 35.3165 12.13 36.0845 12.55C36.8525 12.97 37.4585 13.57 37.9025 14.35C38.3465 15.13 38.5685 16.024 38.5685 17.032C38.5685 18.04 38.3405 18.934 37.8845 19.714C37.4285 20.494 36.8045 21.1 36.0125 21.532C35.2325 21.952 34.3685 22.162 33.4205 22.162ZM33.4205 20.38C33.9485 20.38 34.4405 20.254 34.8965 20.002C35.3645 19.75 35.7425 19.372 36.0305 18.868C36.3185 18.364 36.4625 17.752 36.4625 17.032C36.4625 16.312 36.3245 15.706 36.0485 15.214C35.7725 14.71 35.4065 14.332 34.9505 14.08C34.4945 13.828 34.0025 13.702 33.4745 13.702C32.9465 13.702 32.4545 13.828 31.9985 14.08C31.5545 14.332 31.2005 14.71 30.9365 15.214C30.6725 15.706 30.5405 16.312 30.5405 17.032C30.5405 18.1 30.8105 18.928 31.3505 19.516C31.9025 20.092 32.5925 20.38 33.4205 20.38ZM52.783 11.92C53.563 11.92 54.259 12.082 54.871 12.406C55.495 12.73 55.981 13.21 56.329 13.846C56.689 14.482 56.869 15.25 56.869 16.15V22H54.835V16.456C54.835 15.568 54.613 14.89 54.169 14.422C53.725 13.942 53.119 13.702 52.351 13.702C51.583 13.702 50.971 13.942 50.515 14.422C50.071 14.89 49.849 15.568 49.849 16.456V22H47.815V16.456C47.815 15.568 47.593 14.89 47.149 14.422C46.705 13.942 46.099 13.702 45.331 13.702C44.563 13.702 43.951 13.942 43.495 14.422C43.051 14.89 42.829 15.568 42.829 16.456V22H40.777V12.082H42.829V13.216C43.165 12.808 43.591 12.49 44.107 12.262C44.623 12.034 45.175 11.92 45.763 11.92C46.555 11.92 47.263 12.088 47.887 12.424C48.511 12.76 48.991 13.246 49.327 13.882C49.627 13.282 50.095 12.808 50.731 12.46C51.367 12.1 52.051 11.92 52.783 11.92ZM68.7502 16.798C68.7502 17.17 68.7262 17.506 68.6782 17.806H61.1002C61.1602 18.598 61.4542 19.234 61.9822 19.714C62.5102 20.194 63.1582 20.434 63.9262 20.434C65.0302 20.434 65.8102 19.972 66.2662 19.048H68.4802C68.1802 19.96 67.6342 20.71 66.8422 21.298C66.0622 21.874 65.0902 22.162 63.9262 22.162C62.9782 22.162 62.1262 21.952 61.3702 21.532C60.6262 21.1 60.0382 20.5 59.6062 19.732C59.1862 18.952 58.9762 18.052 58.9762 17.032C58.9762 16.012 59.1802 15.118 59.5882 14.35C60.0082 13.57 60.5902 12.97 61.3342 12.55C62.0902 12.13 62.9542 11.92 63.9262 11.92C64.8622 11.92 65.6962 12.124 66.4282 12.532C67.1602 12.94 67.7302 13.516 68.1382 14.26C68.5462 14.992 68.7502 15.838 68.7502 16.798ZM66.6082 16.15C66.5962 15.394 66.3262 14.788 65.7982 14.332C65.2702 13.876 64.6162 13.648 63.8362 13.648C63.1282 13.648 62.5222 13.876 62.0182 14.332C61.5142 14.776 61.2142 15.382 61.1182 16.15H66.6082ZM79.9273 22.126C79.0873 22.126 78.3313 21.982 77.6593 21.694C76.9873 21.394 76.4593 20.974 76.0753 20.434C75.6913 19.894 75.4993 19.264 75.4993 18.544H77.6953C77.7433 19.084 77.9533 19.528 78.3253 19.876C78.7093 20.224 79.2433 20.398 79.9273 20.398C80.6353 20.398 81.1873 20.23 81.5833 19.894C81.9793 19.546 82.1773 19.102 82.1773 18.562C82.1773 18.142 82.0513 17.8 81.7993 17.536C81.5593 17.272 81.2533 17.068 80.8813 16.924C80.5213 16.78 80.0173 16.624 79.3693 16.456C78.5533 16.24 77.8873 16.024 77.3713 15.808C76.8673 15.58 76.4353 15.232 76.0753 14.764C75.7153 14.296 75.5353 13.672 75.5353 12.892C75.5353 12.172 75.7153 11.542 76.0753 11.002C76.4353 10.462 76.9393 10.048 77.5873 9.76C78.2353 9.472 78.9853 9.328 79.8373 9.328C81.0493 9.328 82.0393 9.634 82.8073 10.246C83.5873 10.846 84.0193 11.674 84.1033 12.73H81.8353C81.7993 12.274 81.5833 11.884 81.1873 11.56C80.7913 11.236 80.2693 11.074 79.6213 11.074C79.0333 11.074 78.5533 11.224 78.1813 11.524C77.8093 11.824 77.6233 12.256 77.6233 12.82C77.6233 13.204 77.7373 13.522 77.9653 13.774C78.2053 14.014 78.5053 14.206 78.8653 14.35C79.2253 14.494 79.7173 14.65 80.3413 14.818C81.1693 15.046 81.8413 15.274 82.3573 15.502C82.8853 15.73 83.3293 16.084 83.6893 16.564C84.0613 17.032 84.2473 17.662 84.2473 18.454C84.2473 19.09 84.0733 19.69 83.7253 20.254C83.3893 20.818 82.8913 21.274 82.2313 21.622C81.5833 21.958 80.8153 22.126 79.9273 22.126ZM89.2426 13.756V19.246C89.2426 19.618 89.3266 19.888 89.4946 20.056C89.6746 20.212 89.9746 20.29 90.3946 20.29H91.6546V22H90.0346C89.1106 22 88.4026 21.784 87.9106 21.352C87.4186 20.92 87.1726 20.218 87.1726 19.246V13.756H86.0026V12.082H87.1726V9.616H89.2426V12.082H91.6546V13.756H89.2426ZM93.0419 16.996C93.0419 16 93.2459 15.118 93.6539 14.35C94.0739 13.582 94.6379 12.988 95.3459 12.568C96.0659 12.136 96.8579 11.92 97.7219 11.92C98.5019 11.92 99.1799 12.076 99.7559 12.388C100.344 12.688 100.812 13.066 101.16 13.522V12.082H103.23V22H101.16V20.524C100.812 20.992 100.338 21.382 99.7379 21.694C99.1379 22.006 98.4539 22.162 97.6859 22.162C96.8339 22.162 96.0539 21.946 95.3459 21.514C94.6379 21.07 94.0739 20.458 93.6539 19.678C93.2459 18.886 93.0419 17.992 93.0419 16.996ZM101.16 17.032C101.16 16.348 101.016 15.754 100.728 15.25C100.452 14.746 100.086 14.362 99.6299 14.098C99.1739 13.834 98.6819 13.702 98.1539 13.702C97.6259 13.702 97.1339 13.834 96.6779 14.098C96.2219 14.35 95.8499 14.728 95.5619 15.232C95.2859 15.724 95.1479 16.312 95.1479 16.996C95.1479 17.68 95.2859 18.28 95.5619 18.796C95.8499 19.312 96.2219 19.708 96.6779 19.984C97.1459 20.248 97.6379 20.38 98.1539 20.38C98.6819 20.38 99.1739 20.248 99.6299 19.984C100.086 19.72 100.452 19.336 100.728 18.832C101.016 18.316 101.16 17.716 101.16 17.032ZM108.499 13.756V19.246C108.499 19.618 108.583 19.888 108.751 20.056C108.931 20.212 109.231 20.29 109.651 20.29H110.911V22H109.291C108.367 22 107.659 21.784 107.167 21.352C106.675 20.92 106.429 20.218 106.429 19.246V13.756H105.259V12.082H106.429V9.616H108.499V12.082H110.911V13.756H108.499ZM116.582 22.162C115.802 22.162 115.1 22.024 114.476 21.748C113.864 21.46 113.378 21.076 113.018 20.596C112.658 20.104 112.466 19.558 112.442 18.958H114.566C114.602 19.378 114.8 19.732 115.16 20.02C115.532 20.296 115.994 20.434 116.546 20.434C117.122 20.434 117.566 20.326 117.878 20.11C118.202 19.882 118.364 19.594 118.364 19.246C118.364 18.874 118.184 18.598 117.824 18.418C117.476 18.238 116.918 18.04 116.15 17.824C115.406 17.62 114.8 17.422 114.332 17.23C113.864 17.038 113.456 16.744 113.108 16.348C112.772 15.952 112.604 15.43 112.604 14.782C112.604 14.254 112.76 13.774 113.072 13.342C113.384 12.898 113.828 12.55 114.404 12.298C114.992 12.046 115.664 11.92 116.42 11.92C117.548 11.92 118.454 12.208 119.138 12.784C119.834 13.348 120.206 14.122 120.254 15.106H118.202C118.166 14.662 117.986 14.308 117.662 14.044C117.338 13.78 116.9 13.648 116.348 13.648C115.808 13.648 115.394 13.75 115.106 13.954C114.818 14.158 114.674 14.428 114.674 14.764C114.674 15.028 114.77 15.25 114.962 15.43C115.154 15.61 115.388 15.754 115.664 15.862C115.94 15.958 116.348 16.084 116.888 16.24C117.608 16.432 118.196 16.63 118.652 16.834C119.12 17.026 119.522 17.314 119.858 17.698C120.194 18.082 120.368 18.592 120.38 19.228C120.38 19.792 120.224 20.296 119.912 20.74C119.6 21.184 119.156 21.532 118.58 21.784C118.016 22.036 117.35 22.162 116.582 22.162Z" fill="#2F1155"/>
<path d="M254.156 14.6926C254.156 15.4433 254.034 16.1404 253.79 16.7839C253.546 17.4177 253.205 17.9735 252.766 18.4512C252.327 18.929 251.806 19.2995 251.201 19.5627C250.597 19.826 249.939 19.9576 249.227 19.9576C248.505 19.9576 247.842 19.826 247.238 19.5627C246.643 19.2995 246.126 18.929 245.688 18.4512C245.249 17.9735 244.908 17.4177 244.664 16.7839C244.42 16.1404 244.298 15.4433 244.298 14.6926C244.298 13.9321 244.42 13.2349 244.664 12.6012C244.908 11.9577 245.249 11.4019 245.688 10.9339C246.126 10.4562 246.643 10.0857 247.238 9.82245C247.842 9.5592 248.505 9.42757 249.227 9.42757C249.939 9.42757 250.597 9.5592 251.201 9.82245C251.806 10.0857 252.327 10.4562 252.766 10.9339C253.205 11.4019 253.546 11.9577 253.79 12.6012C254.034 13.2349 254.156 13.9321 254.156 14.6926ZM252.898 14.6926C252.898 13.8931 252.737 13.1862 252.415 12.5719C252.103 11.9577 251.674 11.4751 251.128 11.1241C250.582 10.7731 249.948 10.5976 249.227 10.5976C248.505 10.5976 247.867 10.7731 247.311 11.1241C246.765 11.4751 246.336 11.9577 246.024 12.5719C245.712 13.1862 245.556 13.8931 245.556 14.6926C245.556 15.4823 245.712 16.1892 246.024 16.8132C246.336 17.4274 246.765 17.9101 247.311 18.2611C247.867 18.6121 248.505 18.7876 249.227 18.7876C249.948 18.7876 250.582 18.6121 251.128 18.2611C251.674 17.9101 252.103 17.4274 252.415 16.8132C252.737 16.1892 252.898 15.4823 252.898 14.6926ZM259.442 12.0601C259.94 12.0601 260.388 12.1137 260.788 12.2209C261.188 12.3282 261.504 12.4744 261.738 12.6597C261.972 12.8449 262.089 13.0546 262.089 13.2886C262.089 13.4153 262.046 13.5372 261.958 13.6542C261.87 13.7712 261.753 13.8297 261.607 13.8297C261.47 13.8297 261.358 13.8053 261.27 13.7566C261.192 13.7078 261.114 13.6444 261.036 13.5664C260.968 13.4884 260.871 13.4202 260.744 13.3617C260.627 13.2934 260.456 13.2398 260.232 13.2008C260.008 13.1618 259.784 13.1423 259.559 13.1423C259.023 13.1423 258.55 13.2691 258.141 13.5226C257.741 13.7761 257.424 14.1173 257.19 14.5463C256.956 14.9753 256.839 15.4628 256.839 16.0088C256.839 16.5548 256.951 17.0423 257.175 17.4713C257.4 17.9003 257.712 18.2416 258.111 18.4951C258.511 18.7486 258.974 18.8753 259.501 18.8753C259.842 18.8753 260.115 18.8461 260.32 18.7876C260.525 18.7291 260.695 18.6608 260.832 18.5828C261.007 18.4853 261.139 18.3878 261.227 18.2903C261.324 18.1928 261.451 18.1441 261.607 18.1441C261.773 18.1441 261.899 18.1977 261.987 18.3049C262.085 18.4122 262.133 18.5438 262.133 18.6998C262.133 18.8753 262.011 19.0606 261.768 19.2556C261.524 19.4506 261.192 19.6163 260.773 19.7528C260.364 19.8893 259.896 19.9576 259.369 19.9576C258.628 19.9576 257.98 19.787 257.424 19.4457C256.868 19.0947 256.434 18.6218 256.122 18.0271C255.82 17.4226 255.669 16.7498 255.669 16.0088C255.669 15.2678 255.825 14.5999 256.137 14.0052C256.459 13.4104 256.902 12.9376 257.468 12.5866C258.033 12.2356 258.692 12.0601 259.442 12.0601ZM263.443 12.2941H266.88C267.036 12.2941 267.163 12.3477 267.26 12.4549C267.367 12.5622 267.421 12.6889 267.421 12.8352C267.421 12.9912 267.367 13.1228 267.26 13.2301C267.163 13.3276 267.036 13.3763 266.88 13.3763H263.443C263.297 13.3763 263.17 13.3227 263.063 13.2154C262.956 13.1082 262.902 12.9766 262.902 12.8206C262.902 12.6743 262.956 12.5524 263.063 12.4549C263.17 12.3477 263.297 12.2941 263.443 12.2941ZM264.979 10.3051C265.144 10.3051 265.281 10.3636 265.388 10.4806C265.495 10.5878 265.549 10.7243 265.549 10.8901V17.954C265.549 18.1879 265.583 18.3634 265.651 18.4804C265.72 18.5975 265.807 18.6803 265.915 18.7291C266.032 18.7681 266.144 18.7876 266.251 18.7876C266.349 18.7876 266.431 18.773 266.5 18.7437C266.578 18.7047 266.665 18.6852 266.763 18.6852C266.86 18.6852 266.948 18.7339 267.026 18.8315C267.114 18.9192 267.158 19.0362 267.158 19.1825C267.158 19.358 267.055 19.5091 266.851 19.6358C266.646 19.7528 266.417 19.8113 266.163 19.8113C266.027 19.8113 265.856 19.8016 265.651 19.7821C265.456 19.7626 265.261 19.6992 265.066 19.592C264.871 19.4847 264.706 19.3092 264.569 19.0655C264.442 18.8119 264.379 18.4609 264.379 18.0125V10.8901C264.379 10.7243 264.438 10.5878 264.555 10.4806C264.672 10.3636 264.813 10.3051 264.979 10.3051ZM273.53 15.8479C273.364 15.8479 273.222 15.7943 273.105 15.6871C272.998 15.5701 272.945 15.4238 272.945 15.2483C272.945 15.0826 272.998 14.9461 273.105 14.8388C273.222 14.7316 273.364 14.6779 273.53 14.6779H276.484C276.65 14.6779 276.786 14.7364 276.893 14.8534C277.01 14.9704 277.069 15.1118 277.069 15.2776C277.069 15.4433 277.01 15.5798 276.893 15.6871C276.786 15.7943 276.65 15.8479 276.484 15.8479H273.53ZM283.928 19.8113C283.752 19.8113 283.606 19.7528 283.489 19.6358C283.382 19.5188 283.328 19.3775 283.328 19.2117V10.1588C283.328 9.99307 283.382 9.85657 283.489 9.74932C283.606 9.63232 283.747 9.57382 283.913 9.57382H289.047C289.212 9.57382 289.354 9.62745 289.471 9.7347C289.588 9.84195 289.646 9.97845 289.646 10.1442C289.646 10.3002 289.588 10.4318 289.471 10.5391C289.354 10.6463 289.212 10.6999 289.047 10.6999H284.44L284.527 10.5829V14.1661L284.454 14.0052H288.388C288.554 14.0052 288.696 14.0637 288.813 14.1807C288.93 14.2879 288.988 14.4244 288.988 14.5902C288.988 14.7364 288.93 14.8681 288.813 14.9851C288.696 15.0923 288.554 15.1459 288.388 15.1459H284.425L284.527 15.0143V19.2117C284.527 19.3775 284.469 19.5188 284.352 19.6358C284.235 19.7528 284.094 19.8113 283.928 19.8113ZM294.747 19.9576C293.967 19.9576 293.285 19.7918 292.7 19.4603C292.115 19.1288 291.656 18.6755 291.325 18.1002C291.003 17.5152 290.842 16.8424 290.842 16.0819C290.842 15.2337 291.008 14.5122 291.339 13.9174C291.681 13.3129 292.119 12.8547 292.656 12.5427C293.202 12.2209 293.777 12.0601 294.381 12.0601C294.83 12.0601 295.264 12.1429 295.683 12.3087C296.102 12.4744 296.473 12.7182 296.795 13.0399C297.116 13.3519 297.375 13.7322 297.57 14.1807C297.765 14.6194 297.867 15.1118 297.877 15.6578C297.877 15.8138 297.818 15.9455 297.701 16.0527C297.584 16.16 297.448 16.2136 297.292 16.2136H291.515L291.252 15.2044H296.882L296.648 15.4092V15.0874C296.609 14.6877 296.473 14.3464 296.239 14.0637C296.015 13.7712 295.737 13.5469 295.405 13.3909C295.083 13.2349 294.742 13.1569 294.381 13.1569C294.089 13.1569 293.796 13.2106 293.504 13.3178C293.221 13.4153 292.963 13.5811 292.729 13.8151C292.505 14.0393 292.319 14.3318 292.173 14.6926C292.037 15.0533 291.968 15.4872 291.968 15.9942C291.968 16.5597 292.08 17.0569 292.305 17.4859C292.539 17.915 292.86 18.2562 293.27 18.5097C293.679 18.7535 294.157 18.8753 294.703 18.8753C295.044 18.8753 295.342 18.8315 295.595 18.7437C295.849 18.656 296.068 18.5487 296.253 18.4219C296.439 18.2854 296.595 18.149 296.721 18.0125C296.848 17.9247 296.97 17.8808 297.087 17.8808C297.233 17.8808 297.35 17.9296 297.438 18.0271C297.536 18.1246 297.584 18.2416 297.584 18.3781C297.584 18.5438 297.506 18.6901 297.35 18.8168C297.077 19.1191 296.707 19.3872 296.239 19.6212C295.771 19.8455 295.274 19.9576 294.747 19.9576ZM303.438 12.0601C304.101 12.0601 304.696 12.2307 305.222 12.5719C305.749 12.9034 306.163 13.3617 306.465 13.9467C306.777 14.5317 306.933 15.2093 306.933 15.9796C306.933 16.7498 306.777 17.4323 306.465 18.0271C306.163 18.6218 305.749 19.0947 305.222 19.4457C304.705 19.787 304.12 19.9576 303.467 19.9576C303.106 19.9576 302.765 19.904 302.443 19.7967C302.131 19.6797 301.844 19.5286 301.58 19.3433C301.327 19.1483 301.112 18.9387 300.937 18.7145C300.761 18.4804 300.635 18.2513 300.557 18.0271L300.878 17.8223V19.2848C300.878 19.4506 300.825 19.592 300.718 19.709C300.61 19.826 300.469 19.8845 300.293 19.8845C300.128 19.8845 299.986 19.8308 299.869 19.7236C299.762 19.6066 299.708 19.4603 299.708 19.2848V9.58845C299.708 9.4227 299.762 9.28132 299.869 9.16432C299.986 9.04732 300.128 8.98882 300.293 8.98882C300.469 8.98882 300.61 9.04732 300.718 9.16432C300.825 9.28132 300.878 9.4227 300.878 9.58845V14.0929L300.659 13.9759C300.727 13.7322 300.844 13.4982 301.01 13.2739C301.186 13.0399 301.395 12.8352 301.639 12.6597C301.892 12.4744 302.17 12.3282 302.473 12.2209C302.785 12.1137 303.106 12.0601 303.438 12.0601ZM303.306 13.1423C302.819 13.1423 302.385 13.2642 302.005 13.5079C301.634 13.7517 301.342 14.0881 301.127 14.5171C300.922 14.9461 300.82 15.4336 300.82 15.9796C300.82 16.5256 300.922 17.0179 301.127 17.4567C301.342 17.8954 301.634 18.2416 302.005 18.4951C302.385 18.7486 302.819 18.8753 303.306 18.8753C303.794 18.8753 304.223 18.7486 304.593 18.4951C304.964 18.2416 305.256 17.8954 305.471 17.4567C305.685 17.0179 305.792 16.5256 305.792 15.9796C305.792 15.4336 305.685 14.9461 305.471 14.5171C305.256 14.0881 304.964 13.7517 304.593 13.5079C304.223 13.2642 303.794 13.1423 303.306 13.1423Z" fill="#60708F"/>
<path d="M321.815 20.3687C321.76 20.3154 321.528 20.1141 321.337 19.9266C320.134 18.8274 318.165 15.96 317.564 14.4592C317.467 14.2313 317.263 13.6551 317.25 13.3472C317.25 13.0522 317.317 12.7709 317.454 12.5026C317.646 12.1681 317.947 11.8997 318.302 11.7526C318.548 11.658 319.286 11.5109 319.299 11.5109C320.107 11.3639 321.418 11.283 322.867 11.283C324.248 11.283 325.507 11.3639 326.326 11.4843C326.339 11.4981 327.256 11.6451 327.57 11.806C328.144 12.101 328.5 12.6772 328.5 13.2939L328.5 13.3472C328.486 13.7488 328.13 14.5934 328.117 14.5934C327.515 16.0133 325.642 18.8146 324.398 19.9404C324.398 19.9404 324.079 20.2575 323.879 20.3953C323.592 20.6104 323.237 20.717 322.882 20.717C322.485 20.717 322.116 20.5966 321.815 20.3687Z" fill="#60708F"/>
<defs>
<linearGradient id="paint0_linear_411_220" x1="139.938" y1="57.6604" x2="157.591" y2="188.386" gradientUnits="userSpaceOnUse">
<stop stop-color="#8438FF"/>
<stop offset="1" stop-color="white" stop-opacity="0"/>
</linearGradient>
</defs>
</svg>
