<svg width="61" height="19" viewBox="0 0 61 19" fill="none" xmlns="http://www.w3.org/2000/svg">
<path id="Vector" d="M44.3679 0.826378C42.9806 0.320867 41.5142 0.0671979 40.0377 0.0773176C35.2628 0.0773176 31.8905 2.48267 31.8666 5.93552C31.8368 8.47218 34.263 9.90167 36.0984 10.7492C37.9815 11.6206 38.6112 12.1697 38.6052 12.9487C38.5933 14.1334 37.1011 14.6706 35.7134 14.6706C33.8064 14.6706 32.7649 14.405 31.1623 13.7395L30.5684 13.462L29.891 17.4371C31.0519 17.9205 33.1439 18.3353 35.3045 18.3711C40.3809 18.3711 43.6994 15.9807 43.7382 12.307C43.78 10.2807 42.4669 8.74973 39.7034 7.48438C38.0232 6.66369 36.9817 6.11458 36.9817 5.28196C36.9817 4.54483 37.874 3.75697 39.7392 3.75697C40.9806 3.72694 42.2142 3.95984 43.3592 4.44038L43.8068 4.64033L44.4843 0.79952L44.3679 0.826378ZM56.7588 0.399623H53.0284C51.8675 0.399623 50.9931 0.718944 50.4857 1.87089L43.3114 18.1234H48.3878L49.4024 15.4585L55.5979 15.4644C55.7441 16.0881 56.1917 18.1234 56.1917 18.1234H60.6682L56.7588 0.399623ZM24.9997 0.250407H29.8373L26.8112 17.9832H21.9796L24.9997 0.244438V0.250407ZM12.7193 10.024L13.2206 12.4861L17.9478 0.399623H23.0718L15.4589 18.0996H10.3467L6.16871 3.11236C6.10104 2.86523 5.94212 2.65299 5.72405 2.51848C4.21817 1.74059 2.62259 1.15026 0.973022 0.760722L1.03868 0.387683H8.82475C9.88119 0.429464 10.7317 0.760723 11.0152 1.88879L12.7163 10.033V10.024H12.7193ZM50.7901 11.8325L52.718 6.87259C52.6941 6.92631 53.1149 5.84897 53.3596 5.18347L53.6909 6.71443L54.81 11.8295H50.7872V11.8325H50.7901Z" fill="white"/>
</svg>
