<svg width="28" height="28" viewBox="0 0 28 28" fill="none" xmlns="http://www.w3.org/2000/svg">
<path d="M25.6667 12.7983V15.2017C25.6667 15.8433 25.1533 16.3683 24.5 16.3917H22.2133C20.9533 16.3917 19.7983 15.47 19.6933 14.21C19.6233 13.475 19.9033 12.7867 20.3933 12.3083C20.825 11.865 21.42 11.6083 22.0733 11.6083H24.5C25.1533 11.6317 25.6667 12.1567 25.6667 12.7983Z" fill="white"/>
<path d="M23.8817 18.1417H22.2133C19.9967 18.1417 18.13 16.4733 17.9433 14.35C17.8383 13.1367 18.2817 11.9233 19.1683 11.06C19.915 10.29 20.9533 9.85834 22.0733 9.85834H23.8817C24.22 9.85834 24.5 9.57834 24.465 9.24001C24.2083 6.40501 22.33 4.46834 19.5417 4.14168C19.2617 4.09501 18.97 4.08334 18.6667 4.08334H8.16668C7.84001 4.08334 7.52501 4.10668 7.22168 4.15334C4.24668 4.52668 2.33334 6.74334 2.33334 9.91668V18.0833C2.33334 21.3033 4.94668 23.9167 8.16668 23.9167H18.6667C21.9333 23.9167 24.185 21.875 24.465 18.76C24.5 18.4217 24.22 18.1417 23.8817 18.1417ZM15.1667 11.375H8.16668C7.68834 11.375 7.29168 10.9783 7.29168 10.5C7.29168 10.0217 7.68834 9.62501 8.16668 9.62501H15.1667C15.645 9.62501 16.0417 10.0217 16.0417 10.5C16.0417 10.9783 15.645 11.375 15.1667 11.375Z" fill="white"/>
</svg>
