<svg width="28" height="28" viewBox="0 0 28 28" fill="none" xmlns="http://www.w3.org/2000/svg">
<path d="M15.1667 10.5H8.16669" stroke="white" stroke-width="1.5" stroke-linecap="round" stroke-linejoin="round"/>
<path d="M25.6667 12.7983V15.2017C25.6667 15.8434 25.1534 16.3683 24.5 16.3916H22.2134C20.9534 16.3916 19.7984 15.47 19.6934 14.21C19.6234 13.475 19.9034 12.7866 20.3934 12.3083C20.825 11.865 21.42 11.6083 22.0734 11.6083H24.5C25.1534 11.6317 25.6667 12.1566 25.6667 12.7983Z" stroke="white" stroke-width="1.5" stroke-linecap="round" stroke-linejoin="round"/>
<path d="M20.3933 12.3083C19.9033 12.7867 19.6233 13.475 19.6933 14.21C19.7983 15.47 20.9533 16.3917 22.2133 16.3917H24.5V18.0833C24.5 21.5833 22.1666 23.9167 18.6666 23.9167H8.16665C4.66665 23.9167 2.33331 21.5833 2.33331 18.0833V9.91668C2.33331 6.74334 4.24665 4.52667 7.22165 4.15334C7.52498 4.10667 7.83998 4.08334 8.16665 4.08334H18.6666C18.97 4.08334 19.2616 4.095 19.5416 4.14166C22.5516 4.49166 24.5 6.72001 24.5 9.91668V11.6084H22.0733C21.42 11.6084 20.825 11.865 20.3933 12.3083Z" stroke="white" stroke-width="1.5" stroke-linecap="round" stroke-linejoin="round"/>
</svg>
